<svg viewBox="0 0 160 160" width="160" height="160" xmlns="http://www.w3.org/2000/svg">
<defs><clipPath id="hexagon-clip-163">
<path d="M251.6 17.34l63.53 110.03c5.72 9.9 5.72 22.1 0 32L251.6 269.4c-5.7 9.9-16.27 16-27.7 16H96.83c-11.43 0-22-6.1-27.7-16L5.6 159.37c-5.7-9.9-5.7-22.1 0-32L69.14 17.34c5.72-9.9 16.28-16 27.7-16H223.9c11.43 0 22 6.1 27.7 16z" transform="scale(0.5) translate(0, 16)"/>
</clipPath></defs>
<g clip-path="url(#hexagon-clip-163)">
<g color="#D94432" fill="#0582CA">
<rect fill="#795548" x="0" y="0" width="160" height="160"/>
<circle cx="80" cy="80" r="40" fill="#D94432"/>
<g opacity=".1" fill="#010101"><path d="M119.21,80a39.46,39.46,0,0,1-67.13,28.13c10.36,2.33,36,3,49.82-14.28,10.39-12.47,8.31-33.23,4.16-43.26A39.35,39.35,0,0,1,119.21,80Z"/></g>
<path d="M43.5 62.2s-7.5-.2-9.4-3.8c-.2-1.1-.2-2.3-.1-3.5a45.7 45.7 0 0147-37c32 1 44 33 42 43-1 3-6 5-7.6 3.5C111 57 99.9 53.4 83 54c-32 0-39.5 8.2-39.5 8.2z" fill="#fff"/><path d="M83 20s16 8 18 25l-6 10c15 0 21 10 21 10s5 0 7-4.3c.7-5 .1-14.2-11.1-28.2 0 0-10.9-13.5-28.9-14.5 0 0-4 1 0 2z" opacity=".05"/><path d="M43.6 61.9s-7.5-.1-9.2-3.6c-1.4-2 14.7-11.9 47-11.3s43.4 11.7 41.4 14.1c-2 4.1-7.5 3.9-7.5 3.9 0-.7-2.6-11.9-31.9-10.6-34.4.6-39.8 7.5-39.8 7.5z" opacity=".2"/><g opacity=".1"><path d="M34.8 57.7s4.9 4.1 7 4.3l1.2-.6-7.3-4.7-.9 1zM41 53.2l7.7 5.8 2.3-.8-7.4-6zM54.6 49.2l5.1 7.4 3.2-.6-4.7-7.5zM70.4 47.2l2.3 7.6 2.9-.2-1-7.6zM89.1 47.3l-1.3 7.1 2.8.1 2.3-6.8zM105.2 49.9l-3.8 6.1 2.4.7 4.3-6zM118.9 55.6l-7.6 4.1 2.5 1.6 8-3.2z"/></g><ellipse cx="96.2" cy="32.5" rx="8.2" ry="9.5"/><path d="M122.2 51.8a9.5 9.5 0 01-7.5-6c-1.1-2.9-.9-6.1.7-8.8 3.1 4.4 5.5 9.4 6.8 14.8zM52.9 32.2c-1.8 5-6.6 7.7-10.9 6.2l-1-.5s5-8 11.8-12c.8 2.1.8 4.3.1 6.3zM81.1 23.6c-1.3 5.1-5.9 8.3-10.3 7.1s-6.7-5.9-5.7-10.8C71 18 74 18 80.7 18a9 9 0 01.4 5.6zM50 50.2V50a9.3 9.3 0 019.5-9c4-.1 7.6 2.4 9 6.1A80.4 80.4 0 0050 50.2z"/>
<path d="M26.4 71l2.4 24-2.4 2v3.3s0 1.7 2.4 2.3c2.5.5 7.1 2 14.2 1.4 3.8-.3 7.5-1.3 11-2.9a3 3 0 001.8-2.5l-.9-3.6-2.4-2-2.4-23" fill="#fff"/><g fill="#fcbb00"><path d="M28.9 71.2l2.5 23.7-3.7 3s0 1.3 4.9 2c6.7 2.2 17.7-.1 20.9-1.9 2.5-.9.5-2 .5-2l-2.5-3L49 70.2l-20.1 1z"/><path d="M54.9 97.2c.1 1.7-5.9 4.4-13.4 4.8s-13.8-1.6-13.9-3.2 5.9-3.4 13.5-3.8 13.6.5 13.8 2.2z" opacity=".5"/></g><g fill="#ffd22d" fill-opacity=".5"><path d="M34.6 93c-.9.1-1.7-.5-1.9-1.4l-1.1-13c0-.9.8-1.6 1.7-1.6.9-.1 1.7.5 1.9 1.4l1 13c0 .9-.7 1.6-1.6 1.6zM40.5 93c-.9.1-1.7-.5-1.9-1.4l-1.1-13c0-.9.7-1.6 1.6-1.6.9-.1 1.7.5 1.9 1.4l1 13c.1.9-.6 1.6-1.5 1.6zM46.4 92c-.9.1-1.7-.5-1.9-1.4l-1.1-13c0-.9.7-1.6 1.6-1.6.9-.1 1.7.5 1.8 1.4l1.1 13c.1.9-.6 1.6-1.5 1.6z"/></g><path d="M29.7 72.9s-8.1 2.2-6.9-4.4c0 0-4.9-5.5 1.2-5.5 0 0 1.2-4.4 6.1 0 0 0 4.9-7.7 9.8 1.1 0 0 3.7-4.4 6.1 2.2 0 0 7.6 2.4 2 5.1S31.7 74 29.7 72.9z" fill="#fff"/><path d="M30.9 72.4S24 74.2 25.1 69c0 0-4.1-4.3 1-4.3 0 0 1-3.5 5.2 0 0 0 4.1-6.1 8.3.9 0 0 3.1-3.5 5.2 1.7 0 0 6.4 2 1.7 4s-14 2-15.6 1.1z" fill="#ffefae" fill-opacity=".5"/><g opacity=".1"><path d="M41.2 64.4S43 64 43 67s-3.1 3.9-3.1 3.9.8-.9 1.9.1-1.5 1.7-1.5 1.7 6.4-.3 8.7-2.5-3.6-3.2-3.6-3.2 0-3.1-4.2-2.6zM31.1 66c.7 1.9 2.7 3 4.7 2.6 0 0-3.5 2.4-4.7-2.6zM27.4 67.1c1.2.7 2.7.5 3.8-.4 0 0-.6 2.6-3.8.4zM37.9 68.5s2.4-.8 1.7-2.9c-.1.1 2.2 1.9-1.7 2.9z"/></g>
<g opacity=".3"><ellipse cx="100.5" cy="86.5" rx="14.5" ry="11.7" fill="#fcfcfc"/><path d="M100.5 98.2c-8 0-14.5-5.2-14.5-11.7s6.5-11.7 14.5-11.7S115 80 115 86.5c0-7.3-7.4-13.3-16.5-13.3S82 79.2 82 86.5s7.4 13.3 16.5 13.3 16.5-6 16.5-13.3c0 6.5-6.5 11.7-14.5 11.7z"/></g><g fill="#211309"><ellipse cx="96" cy="86.5" rx="3" ry="5.5"/><ellipse cx="107" cy="86.5" rx="3" ry="5.5"/></g><g fill="#42210b"><path d="M99 86.5c0 3-1.3 5.5-3 5.5-.5 0-1.1-.2-1.4-.6C98 91 98 82 94.3 82c.4-.6 1-.9 1.7-1 1.7 0 3 2.5 3 5.5zM110 86.5c0 3-1.3 5.5-3 5.5-.5 0-1.1-.2-1.4-.6 3.4-.4 3.4-9.4-.3-9.4.4-.6 1-.9 1.7-1 1.7 0 3 2.5 3 5.5z"/><ellipse transform="rotate(-11.5 109.8 69)" cx="109.8" cy="69" rx="3.6" ry="5.1"/><ellipse transform="rotate(-78.5 86.7 67.7)" cx="86.7" cy="67.7" rx="5.7" ry="4"/></g>
<path d="M95.8 115.5a16 16 0 002.7 2.5c.4 0 1.3-2.4 2.1-5 2.7-1.8 2.2-1.4 4.7-3.5 3.1 6.5 8.6 19.5 8.6 19.5l-1.9 10v-9s-7.7-17-8.7-17c-1 0-2.9 11-3.9 11-.5 0-7.3-7.2-7.3-7.2zM55.9 110.6s-3.6 3.4-4 3.4c-1.1 0-4.4-12-5.5-12s-12.1 23-12.1 23l2.2 10v-9s8.8-17 9.9-17 3.3 11 4.4 11c.5 0 8.3-7.1 8.3-7.1l-3.2-2.3z"/><g fill="#010101" opacity=".2"><path d="M55.9 110.6s-3.6 3.4-4 3.4c-1.1 0-4.4-12-5.5-12s-12.1 23-12.1 23l2.2 10v-9s8.8-17 9.9-17 3.3 11 4.4 11c.5 0 8.3-7.1 8.3-7.1l-3.2-2.3zM95.8 115.5a16 16 0 002.7 2.5c.4 0 1.3-2.3 2.1-5 2.6-1.7 2.3-1.5 4.7-3.5 3.1 6.5 8.6 19.5 8.6 19.5l-1.9 10v-9s-7.7-17-8.7-17c-1 0-2.9 11-3.9 11-.5 0-7.3-7.2-7.3-7.2z"/></g><path d="M70 107.1s-9 12.3-10 12.3-4-13.4-5-13.4-11 25.8-11 25.8l2 11.2v-10.1s8-19.1 9-19.1 3 12.3 4 12.3 15-16.8 15-16.8 0-3.3-4-2.2z"/><path d="M60 122.4c-1 0-4-12.4-5-12.4s-10 21.8-10 21.8l1 11.2v-10.1s8-19.1 9-19.1 3 12.3 4 12.3 15-16.8 15-16.8c0-.9-.5-1.8-1.3-2.2-.6-.3-11.7 15.3-12.7 15.3z" fill="#010101" opacity=".1"/><path d="M96 107.2s9 12.3 10 12.3 4-13.5 5-13.5 11 25.8 11 25.8l-2 11.2v-10.1s-8-19.1-9-19.1-3 12.3-4 12.3-15-16.8-15-16.8 0-3.2 4-2.1z"/>
</g>
</g></svg>